<?xml version="1.0" encoding="utf-8"?>
<!-- Generator: Adobe Illustrator 16.0.0, SVG Export Plug-In . SVG Version: 6.00 Build 0)  -->
<!DOCTYPE svg PUBLIC "-//W3C//DTD SVG 1.1//EN" "http://www.w3.org/Graphics/SVG/1.1/DTD/svg11.dtd">
<svg version="1.1" id="Layer_1" xmlns="http://www.w3.org/2000/svg" xmlns:xlink="http://www.w3.org/1999/xlink" x="0px" y="0px"
	 width="1920px" height="1080px" viewBox="0 0 1920 1080" enable-background="new 0 0 1920 1080" xml:space="preserve">
<g>
	<path fill="#2BB126" d="M1468.854,541.471l-0.008,190.21l72.04-0.12l-0.038-189.849
		C1524.902,516.809,1489.499,535.912,1468.854,541.471L1468.854,541.471z"/>
	<path fill="#D91E18" d="M1288.797,298.296l127.408,243.16h170.906l211.703-398.535l59.438-52.107l-107.698-0.121L1288.797,298.296z
		"/>
	<path fill="#CF000F" d="M1288.768,298.253l-83.261-163.97l-53.249-43.408l113.069-0.212l248.092,106.65L1288.768,298.253z"/>
	<path fill="#A21717" d="M1413.65,154.742L1506.569,40.6l103.894,113.393l-97.148,43.409L1413.65,154.742z"/>
	<path fill="#38D332" d="M1801.535,733.348l-332.885-2.043v97.592L1801.535,733.348z"/>
	<path fill="#2BB126" d="M1468.65,829.241l-0.316,166.867l332.623-262.432L1468.65,829.241z"/>
	<path fill="#38D332" d="M1468.38,996.423l-0.113,43.156l74.669,0.015V937.722L1468.38,996.423z"/>
	<path d="M128.095,555.914h-24.322l6.973-27.725h24.156L128.095,555.914L128.095,555.914z M109.002,480.955l-8.468,34.45H70.567
		v12.784h26.729l-6.973,27.726h-29.22v12.699h26.149l-8.635,34.366h13.367l8.549-34.366h24.324l-8.551,34.366h13.282l8.633-34.366
		h29.636v-12.699h-26.4l6.807-27.726h29.138v-12.784h-25.899l8.551-34.45h-13.282l-8.718,34.45h-24.24l8.633-34.45H109.002
		L109.002,480.955z"/>
	<path d="M238.005,534v-31.794h13.448c6.695,0,11.496,1.217,14.403,3.653c2.904,2.435,4.358,6.475,4.358,12.119
		c0,5.7-1.454,9.797-4.358,12.285c-2.907,2.49-7.708,3.736-14.403,3.736H238.005L238.005,534z M247.053,556.078
		c5.201,0,9.365,1.135,12.494,3.402c3.126,2.274,6.211,6.505,9.254,12.709l15.109,30.791h34.036l-17.349-35.193
		c-3.543-7.143-7.043-12.467-10.501-15.981c-3.46-3.515-7.375-5.768-11.746-6.768c7.969-2.485,13.932-6.36,17.89-11.62
		c3.955-5.258,5.935-11.981,5.935-20.171c0-11.843-3.806-20.506-11.413-25.984c-7.61-5.479-19.58-8.219-35.904-8.219h-48.812V602.98
		h31.96v-46.902H247.053L247.053,556.078z M336.957,602.98h88.077v-24.152h-56.118v-28.391h51.055v-24.159h-51.055v-23.077h54.291
		v-24.158h-86.25V602.98L336.957,602.98z M484.221,602.98h38.104l45.906-123.938h-32.127l-32.789,91.484l-32.873-91.484h-32.125
		L484.221,602.98L484.221,602.98z"/>
	<path d="M660.797,510.756c5.369,7.195,8.053,17.322,8.053,30.385c0,13-2.685,23.104-8.053,30.299
		c-5.368,7.193-12.95,10.791-22.745,10.791c-9.741,0-17.295-3.598-22.663-10.791c-5.369-7.195-8.054-17.299-8.054-30.299
		c0-13.062,2.685-23.189,8.054-30.385c5.368-7.193,12.922-10.791,22.663-10.791C647.847,499.965,655.429,503.562,660.797,510.756
		L660.797,510.756z M591.273,493.904c-11.318,11.399-16.976,27.145-16.976,47.236c0,20.03,5.657,35.749,16.976,47.15
		c11.317,11.4,26.909,17.102,46.778,17.102c19.923,0,35.53-5.7,46.818-17.102c11.29-11.401,16.937-27.12,16.937-47.15
		c0-20.092-5.646-35.836-16.937-47.236c-11.288-11.4-26.896-17.101-46.818-17.101C618.183,476.804,602.591,482.504,591.273,493.904
		L591.273,493.904z M725.962,602.98h88.078v-24.152h-56.118v-99.784h-31.96V602.98L725.962,602.98z"/>
	<path d="M828.684,553.346c0,17.544,4.401,30.598,13.2,39.183c8.798,8.575,22.191,12.864,40.179,12.864
		c18.041,0,31.462-4.289,40.263-12.864c8.799-8.585,13.198-21.639,13.198-39.183v-74.302h-31.958v74.302
		c0,10.236-1.677,17.553-5.023,21.952c-3.349,4.4-8.842,6.604-16.478,6.604c-7.584,0-13.049-2.202-16.396-6.604
		c-3.35-4.399-5.021-11.716-5.021-21.952v-74.302h-31.961v74.302H828.684z M1065.024,570.528
		c-5.928,4.032-11.763,7.001-17.516,8.878c-5.761,1.886-11.821,2.822-18.183,2.822c-11.401,0-20.369-3.648-26.896-10.956
		c-6.534-7.308-9.794-17.35-9.794-30.133c0-12.841,3.26-22.914,9.794-30.219c6.525-7.305,15.493-10.957,26.896-10.957
		c6.361,0,12.422,0.941,18.183,2.822c5.753,1.881,11.588,4.842,17.516,8.881v-25.65c-5.866-3.044-11.987-5.34-18.35-6.892
		c-6.36-1.548-13.008-2.322-19.925-2.322c-20.639,0-36.996,5.769-49.058,17.31c-12.063,11.538-18.098,27.212-18.098,47.027
		c0,19.753,6.033,35.403,18.098,46.94c12.062,11.543,28.419,17.312,49.058,17.312c6.917,0,13.562-0.78,19.925-2.327
		c6.361-1.549,12.482-3.848,18.35-6.889V570.528L1065.024,570.528z M1020.359,602.98c2.492,3.32,4.334,6.114,5.52,8.391
		c1.195,2.268,1.787,4.115,1.787,5.558c0,2.215-0.9,3.958-2.695,5.228c-1.802,1.276-4.304,1.915-7.519,1.915
		c-1.823,0-3.882-0.21-6.181-0.623c-2.3-0.413-4.83-1.065-7.594-1.952l0.082,12.617c2.877,0.722,5.725,1.261,8.548,1.623
		c2.823,0.353,5.564,0.539,8.216,0.539c7.03,0,12.25-1.262,15.652-3.777c3.401-2.522,5.106-6.405,5.106-11.663
		c0-2.606-0.767-5.369-2.283-8.308c-1.522-2.929-3.891-6.112-7.098-9.547H1020.359L1020.359,602.98z M1174.52,602.98h32.121
		l-45.902-123.938h-38.103l-45.91,123.938h32.13l7.886-22.575h49.975L1174.52,602.98L1174.52,602.98z M1141.729,508.1l16.938,49.31
		h-33.955L1141.729,508.1L1141.729,508.1z M1146.212,466.344c1.938,0.608,3.95,0.913,6.062,0.913c4.812,0,8.696-1.786,11.655-5.354
		c2.968-3.57,4.446-8.287,4.446-14.154c0-0.276,0.023-0.691,0.082-1.244c0.053-0.553,0.084-0.997,0.084-1.329h-11.537
		c0,3.154-0.541,5.562-1.621,7.222c-1.082,1.659-2.645,2.49-4.688,2.49c-0.887,0-1.869-0.208-2.951-0.623s-2.201-1.01-3.365-1.783
		l-4.896-3.238c-2.155-1.327-4.259-2.337-6.31-3.029c-2.044-0.69-4.094-1.038-6.143-1.038c-4.814,0-8.699,1.799-11.665,5.395
		c-2.959,3.6-4.438,8.331-4.438,14.196c0,0.275-0.029,0.692-0.082,1.245c-0.054,0.554-0.082,0.97-0.082,1.245h11.534v-0.498
		c0-2.766,0.557-4.98,1.661-6.641c1.111-1.661,2.546-2.491,4.318-2.491c1.546,0,3.566,0.722,6.061,2.159
		c0.392,0.22,0.668,0.386,0.833,0.497l4.649,2.907C1142.141,464.684,1144.273,465.736,1146.212,466.344L1146.212,466.344z
		 M1302.436,510.756c5.371,7.195,8.061,17.322,8.061,30.385c0,13-2.688,23.104-8.061,30.299c-5.36,7.193-12.946,10.791-22.74,10.791
		c-9.74,0-17.297-3.598-22.666-10.791c-5.362-7.195-8.051-17.299-8.051-30.299c0-13.062,2.688-23.189,8.051-30.385
		c5.369-7.193,12.926-10.791,22.666-10.791C1289.488,499.965,1297.074,503.562,1302.436,510.756L1302.436,510.756z M1232.92,493.904
		c-11.318,11.399-16.98,27.145-16.98,47.236c0,20.03,5.662,35.749,16.98,47.15c11.312,11.4,26.902,17.102,46.774,17.102
		c19.926,0,35.532-5.7,46.819-17.102c11.289-11.401,16.937-27.12,16.937-47.15c0-20.092-5.646-35.836-16.937-47.236
		c-11.287-11.4-26.895-17.101-46.819-17.101C1259.822,476.804,1244.23,482.504,1232.92,493.904L1232.92,493.904z"/>
	<path d="M768.876,705.649v-28.021h18.887c5.377,0,9.458,1.193,12.236,3.589c2.776,2.396,4.168,5.866,4.168,10.417
		c0,4.61-1.392,8.104-4.168,10.47c-2.779,2.357-6.859,3.545-12.236,3.545L768.876,705.649L768.876,705.649z M768.876,763.547
		v-34.668h20.04c6.915,0,12.088,1.436,15.517,4.304c3.429,2.869,5.144,7.165,5.144,12.902c0,5.853-1.729,10.223-5.188,13.121
		c-3.458,2.897-8.615,4.341-15.473,4.341H768.876L768.876,763.547z M833.783,705.867c3.015-4.521,4.522-10.004,4.522-16.447
		c0-12.235-4.122-21.135-12.37-26.692c-8.245-5.551-21.562-8.329-39.947-8.329h-51.251v132.388h56.659
		c17.616,0,30.739-3.133,39.371-9.404c8.632-6.263,12.945-15.779,12.945-28.547c0-8.336-2.009-15.373-6.029-21.104
		c-4.02-5.737-9.694-9.666-17.022-11.799C826.395,713.745,830.768,710.389,833.783,705.867L833.783,705.867z"/>
	<path d="M895.178,731.004v55.781h34.139v-55.781l50.457-76.605H942.35l-30.148,47.173l-30.148-47.173h-37.33L895.178,731.004
		L895.178,731.004z M978.887,680.196h43.98v106.589h34.136V680.196h43.892v-25.8H978.887V680.196L978.887,680.196z
		 M1118.544,786.785h94.076v-25.808h-59.942v-30.326h54.533v-25.8h-54.533v-24.655h57.996v-25.8h-92.13V786.785L1118.544,786.785z
		 M1310.87,653.639c-7.683-1.089-15.163-1.637-22.433-1.637c-15.961,0-28.194,3.545-36.711,10.643
		c-8.512,7.091-12.77,17.229-12.77,30.41c0,10.522,3.058,18.89,9.178,25.1c6.122,6.203,15.795,10.726,29.043,13.564l13.211,2.928
		c8.037,1.772,13.398,3.777,16.096,6.023c2.688,2.253,4.032,5.446,4.032,9.576c0,4.611-1.982,8.163-5.94,10.643
		c-3.966,2.486-9.666,3.726-17.115,3.726c-7.331,0-14.939-1.136-22.832-3.409c-7.895-2.275-16.064-5.664-24.521-10.154v28.818
		c8.457,3.13,16.906,5.497,25.362,7.089c8.457,1.601,16.877,2.396,25.272,2.396c17.792,0,31.018-3.56,39.678-10.687
		c8.659-7.12,12.994-17.979,12.994-32.581c0-11.115-3.104-19.686-9.313-25.715c-6.204-6.031-16.666-10.522-31.387-13.481
		l-14.54-2.93c-6.917-1.412-11.693-3.116-14.322-5.092c-2.629-1.982-3.949-4.747-3.949-8.291c0-4.731,1.953-8.218,5.857-10.462
		c3.896-2.254,9.93-3.372,18.085-3.372c6.151,0,12.686,0.825,19.595,2.479c6.918,1.659,14.015,4.115,21.285,7.359v-28.015
		C1326.508,656.373,1318.555,654.735,1310.87,653.639L1310.87,653.639z"/>
	<path d="M498.654,664.191c10.669,0,18.479,2.411,23.435,7.226c4.955,4.821,7.433,12.407,7.433,22.764
		c0,10.425-2.478,18.057-7.433,22.894c-4.955,4.828-12.766,7.246-23.435,7.246h-12.637v-60.128L498.654,664.191L498.654,664.191z
		 M475.557,732.92h21.493c14.915,0,25.895-3.125,32.938-9.374c7.043-6.248,10.563-16.041,10.563-29.365
		c0-13.255-3.504-23.005-10.513-29.237c-7.009-6.228-18.006-9.344-32.989-9.344h-21.493V732.92L475.557,732.92z M606.662,671.184
		c4.437,5.663,6.654,13.385,6.654,23.155c0,9.733-2.219,17.431-6.654,23.095c-4.438,5.663-10.455,8.494-18.05,8.494
		s-13.63-2.831-18.101-8.494c-4.473-5.664-6.707-13.36-6.707-23.095c0-9.771,2.234-17.492,6.707-23.155
		c4.471-5.661,10.506-8.493,18.101-8.493S602.227,665.521,606.662,671.184L606.662,671.184z M562.536,665.101
		c-6.507,7.271-9.761,17.012-9.761,29.238c0,12.219,3.254,21.952,9.761,29.207c6.508,7.248,15.201,10.876,26.076,10.876
		c10.842,0,19.509-3.635,26-10.905c6.491-7.262,9.734-16.995,9.734-29.178c0-12.228-3.245-21.968-9.734-29.238
		c-6.49-7.27-15.158-10.905-26-10.905C577.737,654.194,569.044,657.83,562.536,665.101L562.536,665.101z M675.516,655.18
		c-3.763-0.653-7.458-0.984-11.083-0.984c-8.458,0-15.096,1.969-19.911,5.912c-4.816,3.935-7.226,9.319-7.226,16.154
		c0,5.902,1.743,10.515,5.231,13.826c3.485,3.312,9.133,5.753,16.937,7.3l6.369,1.246c5.317,1.067,9.142,2.674,11.472,4.815
		c2.33,2.14,3.496,5.112,3.496,8.906c0,4.355-1.625,7.705-4.869,10.049c-3.246,2.352-7.854,3.522-13.828,3.522
		c-3.936,0-7.94-0.602-12.015-1.81c-4.075-1.21-8.235-3.005-12.479-5.394V729.5c4.418,1.623,8.691,2.848,12.816,3.674
		c4.125,0.833,8.02,1.246,11.68,1.246c9.701,0,17.064-1.938,22.088-5.799c5.024-3.867,7.537-9.553,7.537-17.041
		c0-6.285-1.857-11.296-5.569-15.043c-3.71-3.748-9.469-6.361-17.271-7.85l-6.32-1.292c-5.73-1.072-9.624-2.479-11.676-4.22
		c-2.057-1.751-3.084-4.327-3.084-7.743c0-4.079,1.545-7.219,4.637-9.426c3.09-2.208,7.482-3.32,13.181-3.32
		c3.28,0,6.681,0.467,10.203,1.404c3.521,0.933,7.266,2.344,11.237,4.244v-10.199C683.129,656.824,679.278,655.84,675.516,655.18
		L675.516,655.18z"/>
</g>
</svg>
