<?xml version="1.0" encoding="utf-8"?>
<!-- Generator: Adobe Illustrator 16.0.0, SVG Export Plug-In . SVG Version: 6.00 Build 0)  -->
<!DOCTYPE svg PUBLIC "-//W3C//DTD SVG 1.1//EN" "http://www.w3.org/Graphics/SVG/1.1/DTD/svg11.dtd">
<svg version="1.1" id="Layer_1" xmlns="http://www.w3.org/2000/svg" xmlns:xlink="http://www.w3.org/1999/xlink" x="0px" y="0px"
	 width="180px" height="180px" viewBox="0 0 180 180" enable-background="new 0 0 180 180" xml:space="preserve">
<g>
	<g>
		<path fill="#15864A" d="M96.577,76.113c-0.003-0.36,0.308-0.583,0.797-0.333c0.99,0.45,1.946,1.28,2.873,2.007
			c3.482,2.866,6.894,6.063,9.092,9.172c0.92,1.535,1.136,2.948,2.328,4.399c1.031-0.324,1.63-0.978,2.472-1.396
			c1.058-0.457,2.844,0.293,4.333,1.068c1.089,0.613,2.404,1.402,2.93,2.562c0.974,1.885,1.71,3.725,1.721,5.183
			c-1.217-1.551-2.162-3.406-4.062-4.78c-1.279-0.994-3.22-1.761-3.836-0.939c-0.333,0.848,0.294,2.06,0.703,3.098
			c1.296,2.87,2.712,5.598,4.631,8.151c3.283,4.556,5.034,8.975,5.899,13.438c0.242,1.069,0.377,2.133,0.681,3.188
			c0.844-0.277,1.505-0.882,2.242-1.332c0.878-0.541,1.979-0.512,3.015-0.329c0.748,0.133,1.609,0.657,1.864,1.591
			c0.352,1.287,0.369,2.612,0.271,3.857c-0.257-1.101-0.436-2.309-1.092-3.297c-0.465-0.679-1.234-0.615-1.856-0.675
			c-1.989-0.318-3.601,1.699-3.404,3.906c0.319,8.441,1.982,16.85,10.57,25.054c1.796,1.764,3.72,3.579,5.972,5.364
			c0.958,0.72,1.961,1.536,3.328,1.913c0.235-1.088-0.667-2.31-0.821-3.411c-0.236-1.346,0.224-2.644,1.942-3.472
			c2.067-1.008,5.712-1.308,8.97-1.008c1.856,0.17,3.107,0.902,3.885,1.767c-1.949,0.215-3.822,0.114-5.591,0.377
			c-2.408,0.312-4.385,1.022-5.334,2.022c-0.704,0.775-1.88,1.093-1.333,2.483c-0.074,0.848,12.777,9.399,19.493,13.53
			c0.949,0.632,1.925,1.358,1.932,2.348c0.004,1.338-0.235,2.677-0.574,3.947c-1.407-0.883-2.839-2.12-4.46-3.278
			c-6.692-4.827-15.527-9.783-22.239-14.901c-1.138-0.855-2.358-1.63-3.438-2.467c-6.08-4.578-9.656-9.659-11.841-14.476
			c-0.832-1.863-1.567-3.703-2.059-5.549c-1.153-4.559-1.07-8.991-1.644-13.292c-0.202-1.407-0.354-2.821-0.88-4.188
			c-0.849-2.275-2.287-4.458-4.559-6.199c-1.195-0.926-2.812-1.715-4.664-1.747c-1.915-0.098-3.724,0.832-4.57,2.004
			c-1.666,2.23-0.867,4.756,1.178,6.124c0.809,0.609,1.931,0.912,2.799,1.449c-0.753,0.038-1.52,0.012-2.201-0.196
			c-1.729-0.5-3.536-1.026-5.155-1.79c-1.4-0.691-1.817-2.048-1.486-3.462c0.473-2.052,2.212-4.276,4.818-5.533
			c1.86-0.917,4.229-1.089,6.253-0.591c1.671,0.352,3.07,1.189,4.52,1.596c-0.505-0.978-1.311-1.92-2.16-2.849
			c-2.394-2.58-5.6-5.055-9.562-7.371c-3.856-2.295-8.79-4.15-14.076-5.804c-2.36-0.74-4.722-1.525-6.901-2.447
			c-1.251-0.522-2.124-1.267-3.277-1.837c-0.008-0.104-0.016-0.208-0.024-0.312c-0.183-1.536,0.691-3.073,1.303-4.512
			c0.476-0.87,0.899-1.904,2.076-2.296C89.661,81.546,94.402,76.624,96.577,76.113z"/>
		<path fill="none" stroke="#010101" stroke-width="0.75" stroke-miterlimit="10" d="M96.577,76.113
			c-0.003-0.36,0.308-0.583,0.797-0.333c0.99,0.45,1.946,1.28,2.873,2.007c3.482,2.866,6.894,6.063,9.092,9.172
			c0.92,1.535,1.136,2.948,2.328,4.399c1.031-0.324,1.63-0.978,2.472-1.396c1.058-0.457,2.844,0.293,4.333,1.068
			c1.089,0.613,2.404,1.402,2.93,2.562c0.974,1.885,1.71,3.725,1.721,5.183c-1.217-1.551-2.162-3.406-4.062-4.78
			c-1.279-0.994-3.22-1.761-3.836-0.939c-0.333,0.848,0.294,2.06,0.703,3.098c1.296,2.87,2.712,5.598,4.631,8.151
			c3.283,4.556,5.034,8.975,5.899,13.438c0.242,1.069,0.377,2.133,0.681,3.188c0.844-0.277,1.505-0.882,2.242-1.332
			c0.878-0.541,1.979-0.512,3.015-0.329c0.748,0.133,1.609,0.657,1.864,1.591c0.352,1.287,0.369,2.612,0.271,3.857
			c-0.257-1.101-0.436-2.309-1.092-3.297c-0.465-0.679-1.234-0.615-1.856-0.675c-1.989-0.318-3.601,1.699-3.404,3.906
			c0.319,8.441,1.982,16.85,10.57,25.054c1.796,1.764,3.72,3.579,5.972,5.364c0.958,0.72,1.961,1.536,3.328,1.913
			c0.235-1.088-0.667-2.31-0.821-3.411c-0.236-1.346,0.224-2.644,1.942-3.472c2.067-1.008,5.712-1.308,8.97-1.008
			c1.856,0.17,3.107,0.902,3.885,1.767c-1.949,0.215-3.822,0.114-5.591,0.377c-2.408,0.312-4.385,1.022-5.334,2.022
			c-0.704,0.775-1.88,1.093-1.333,2.483c-0.074,0.848,12.777,9.399,19.493,13.53c0.949,0.632,1.925,1.358,1.932,2.348
			c0.004,1.338-0.235,2.677-0.574,3.947c-1.407-0.883-2.839-2.12-4.46-3.278c-6.692-4.827-15.527-9.783-22.239-14.901
			c-1.138-0.855-2.358-1.63-3.438-2.467c-6.08-4.578-9.656-9.659-11.841-14.476c-0.832-1.863-1.567-3.703-2.059-5.549
			c-1.153-4.559-1.07-8.991-1.644-13.292c-0.202-1.407-0.354-2.821-0.88-4.188c-0.849-2.275-2.287-4.458-4.559-6.199
			c-1.195-0.926-2.812-1.715-4.664-1.747c-1.915-0.098-3.724,0.832-4.57,2.004c-1.666,2.23-0.867,4.756,1.178,6.124
			c0.809,0.609,1.931,0.912,2.799,1.449c-0.753,0.038-1.52,0.012-2.201-0.196c-1.729-0.5-3.536-1.026-5.155-1.79
			c-1.4-0.691-1.817-2.048-1.486-3.462c0.473-2.052,2.212-4.276,4.818-5.533c1.86-0.917,4.229-1.089,6.253-0.591
			c1.671,0.352,3.07,1.189,4.52,1.596c-0.505-0.978-1.311-1.92-2.16-2.849c-2.394-2.58-5.6-5.055-9.562-7.371
			c-3.856-2.295-8.79-4.15-14.076-5.804c-2.36-0.74-4.722-1.525-6.901-2.447c-1.251-0.522-2.124-1.267-3.277-1.837
			c-0.008-0.104-0.016-0.208-0.024-0.312c-0.183-1.536,0.691-3.073,1.303-4.512c0.476-0.87,0.899-1.904,2.076-2.296
			C89.661,81.546,94.402,76.624,96.577,76.113z"/>
	</g>
	<g>
		<path fill="#D01C2F" stroke="#010101" stroke-miterlimit="10" d="M110.76,58.01c-0.19,3-7.529,5.34-2.844,8.411
			c4.682,3.083,0.651,4.451-3.39,5.829c-4.035,1.368-6.74,0.035-7.65,3.459c-0.907,3.434,1.869-0.101-0.907,3.434
			c-2.772,3.547-3.688,6.979-7.73,8.334c-4.027,1.379-6.917,3.06-6.917,3.06s-4.382-4.212-4.575-1.212
			c-0.189,3.008,1.498,5.896-1.096,6.432c-2.593,0.544-2.465,2.406-5.481,2.212c-3.002-0.177,0.842,1.436-3.002-0.177
			c-3.849-1.647-7.163-0.691-7.163-0.691s7.272,2.545-1.211,4.576c-8.489,2.019-8.489,2.019-8.489,2.019l-8.911,1.295
			c0,0,0.651,4.457-2.89,1.687c-3.541-2.769-4.801-4.954-4.801-4.954l-2.404-2.477c0,0-1.44,0.842-4.677-3.077
			c-3.243-3.918-1.143-0.295-3.243-3.918c-2.097-3.61,2.59-0.526-2.097-3.61c-4.687-3.082-6.971-3.689-7.196-7.408
			c-0.236-3.737-1.979-1.761-0.044-6.747c1.937-4.983,7.579,1.403,1.937-4.983c-5.636-6.394-9.441-1.295-5.636-6.394
			c3.798-5.1,11.66,2.903,9.446-2.581c-2.211-5.492-4.954-7.439-4.954-7.439s-0.427-2.959-1.389-6.286
			c-0.951-3.311-0.951-3.311-0.951-3.311s5.296,0.798,3.499-3.95c-1.796-4.752-1.796-4.752-1.796-4.752s2.596-0.543,5.178-1.085
			c2.59-0.539,3.132,2.061,5.18-1.065c2.055-3.125,2.055-3.125,2.055-3.125s-0.236-3.732,1.75-1.979
			c1.982,1.752-2.896,1.678,1.982,1.752c4.864,0.075,7.914,7.002,4.864,0.075c-3.042-6.929-3.042-6.929-3.042-6.929
			s1.135,0.299,4.152,0.489c3.003,0.193,2.624,6.206,3.003,0.193c0.374-6.023,0.374-6.023,0.374-6.023l2.887-1.676
			c2.062-3.118-2.085-3.612,2.062-3.118c4.151,0.489,4.151,0.489,4.151,0.489s2.131,4.244,4.721,3.705
			c2.586-0.539,1.318,1.156,3.373-1.956c2.047-3.134,3.282-5.451,3.282-5.451l1.979,1.759c0,0,1.142,0.288,4.034-1.384
			c2.897-1.68,5.791-3.349,5.791-3.349l2.884-1.68l0.958,3.312c0,0,4.148,0.487,7.76-1.607c3.62-2.092,5.595-0.354,5.595-0.354
			s1.032,0.238,2.098,3.618c1.558,4.903-4.04,5.247,0.952,7.186c4.986,1.935,6.935-6.917,7.471-4.332
			c0.532,2.583,1.26,2.168,3.236,3.918c1.985,1.748,1.864-0.116,4.575,1.215c2.693,1.328,1.026-1.556,2.693,1.328
			c1.683,2.887,3.922-3.235,1.683,2.887c-2.239,6.147-3.916,3.247-2.239,6.147c1.678,2.888,6.62-1.916,4.261,2.346
			c-2.356,4.258-2.356,4.258-2.356,4.258l2.096,3.631c0,0,5.179-1.086,2.403,2.456c-2.785,3.546,0.728-0.41-2.785,3.546
			c-3.493,3.973-3.493,3.973-3.493,3.973s-0.604,2.283,1.365,4.024c1.984,1.75,1.984,1.75,1.984,1.75L110.76,58.01z"/>
		<path fill="#B9212C" d="M27.497,64.791c-0.577,0.248-1.306-1.604-2.059-0.564c-3.119,4.234-1.8-0.888,2.911,4.493
			c4.724,5.394,0,0-1.562,4.162c-1.569,4.16-0.136,2.51,0.084,5.634c0.219,3.124,2.119,3.653,6.018,6.262
			c3.898,2.601,0,0,1.757,3.042c1.765,3.037,0,0,2.717,3.301c2.706,3.303,3.896,2.611,3.896,2.611l2.01,2.091
			c0,0,1.054,1.815,4.011,4.157c2.951,2.364,2.377-1.372,2.377-1.372l7.368-1.021c0,0,0,0,7.002-1.638
			c7.008-1.629,0.975-3.801,0.975-3.801s-0.627-2.745,2.577-1.358c3.196,1.403,2.91-0.019,5.389,0.165
			c2.494,0.179,2.836,0.608,4.979,0.18c2.129-0.425,0.724-2.851,0.864-5.362c0.123-2.524,3.783,1.032,3.783,1.032
			s-1.434-5.948,1.89-7.066c3.329-1.119,4.689-0.268,6.959-3.212c2.273-2.946,3.193,0.869,3.921-1.99
			c0.727-2.857,2.974-1.722,6.308-2.838c3.328-1.12,6.654-2.247,2.762-4.843c-3.906-2.627,2.15-4.521,2.29-7.028l1.914-3.551
			c0,0,0,0-1.651-1.477c-1.651-1.479-1.166-3.383-1.166-3.383s0,0,2.865-3.293c2.868-3.285,0,0,2.277-2.939
			c2.269-2.94-2.009-2.086-2.009-2.086l-1.76-3.035c0,0,0,0,1.917-3.56c1.913-3.551-2.139,0.429-3.55-2.002
			c-1.406-2.425-16.573,12.985-14.761,7.886c0,0-2.948-2.839-3.692,4.093c-0.753,6.941,11.959-0.884,9.33,1.441
			c-2.618,2.332-5.576-0.012-7.935-2.708c-2.357-2.693-5.116,2.16-5.116,2.16s-3.699,4.575-2.291,7.008
			c1.404,2.439,2.681,7.379,2.681,7.379l-2.52,3.894l-4.865,1.203l-6.879-0.878c0,0-2.976,1.722-3.105,4.232
			c-0.133,2.517,0.462,2.174-0.271,5.029c-0.727,2.859-2.405,5.462-4.192,6.494c-1.782,1.042-2.38,1.38-5.117,2.15
			c-2.729,0.776-3.437-0.437-5.566-0.005c-2.146,0.424-4.126-5.735-4.126-5.735s-0.953-0.266-3.439-0.449
			c-2.493-0.171-5.227,0.605-5.227,0.605s-1.058-1.836-3.06-3.921c-2.009-2.082-0.219-3.125-2.228-5.208
			c-2.007-2.083-0.574-3.735-3.058-3.907C27.633,65.083,27.497,64.791,27.497,64.791z"/>
		<path fill="#B9212C" d="M58.243,42.751c0,0-9.095,4.296-11.676,4.829c-2.594,0.55-9.942,2.868-9.942,2.868
			s-5.52-4.529-6.012-0.377c-0.493,4.154-1.107,6.435-2.851,8.42c-1.749,1.979-4.761,1.79-4.761,1.79l-3.654-4.637l0.688-7.157
			l0.252-7.891c0,0,2.289,0.618,6.744-0.036c4.458-0.646,5.058-2.933,7.768-1.598c2.704,1.326,7.804,5.13,10.391,4.586
			c2.583-0.528,3.01,0.202,7.342-2.326c4.341-2.519,5.674-5.212,6.93-3.045C60.716,40.336,58.243,42.751,58.243,42.751z"/>
		<path fill="#B9212C" d="M57.15,49.186c-2.176,1.244-10.967,4.417-10.967,4.417s-2.282-0.605-0.903,3.436
			c1.367,4.021,1.367,4.021,1.367,4.021l3.66,4.641L52.9,65.17l4.329-2.519c3.268-7.692,3.268-7.692,3.268-7.692L57.15,49.186z"/>
		<path fill="#B9212C" d="M87.441,36.443c0,0-10.323-9.465-12.379-6.352c-2.053,3.127-6.2,2.635-3.266,7.705
			c2.929,5.04,2.252,12.21,3.886,8.358c1.634-3.838,0.188-3.002,3.389-5.827C82.263,37.511,87.441,36.443,87.441,36.443z"/>
		<path fill="#B9212C" d="M63.292,69.767c0,0-4.498-6.084-7.46,0.473c-2.97,6.537-1.942,4.983-3.163,9.543
			c-1.207,4.573-1.207,4.573-1.207,4.573s5.282,0.798,9.211-2.434c3.915-3.249,7.882,0.248,5.245-5.958
			C63.292,69.767,63.292,69.767,63.292,69.767z"/>
		<path fill="#B9212C" d="M40.457,82.052c0,0,2.776-3.542,4.412-7.393c1.632-3.839,2.06-3.116-2.518-4.344
			c-4.567-1.209,1.706-8.72-5.332-7.526c-7.048,1.185-8.115-3.984-6.513,3.772c1.606,7.753-0.561,9.017,1.117,11.91
			C33.3,81.372,39.265,75.012,40.457,82.052z"/>
		<path fill="#9E1E27" d="M58.704,88.292c0,0-2.215-5.464-7.156-0.682c-4.947,4.808-5.554,7.087-9.822,4.729
			c-4.265-2.35-2.323-7.341-4.305-9.086c-1.977-1.752-0.311,1.135-4.877-0.078c-4.566-1.208-3.543-2.768-4.497-6.084
			c-0.96-3.317-0.838-1.454-4.567-1.21c-3.733,0.228-9.867-2.01-5.059,2.932c4.799,4.947,4.858,5.877,7.069,8.456
			c2.219,2.568-3.549,0.118,3.244,3.915c6.784,3.804,3.849-1.278,6.784,3.804c2.938,5.05-0.087,10.663,5.102,6.688
			c5.181-3.965,7.663-6.366,10.128-8.768c2.473-2.398,4.218-4.381,5.899-1.482C58.329,94.306,60.685,90.047,58.704,88.292z"/>
		<path fill="#9E1E27" d="M69.572,96.497c0,0-0.721-2.484-0.639-7.358c0.071-4.872,0.42,0.722,0.071-4.872
			c-0.351-5.587-0.351-5.587-0.351-5.587s-12.721-11.953-7.313-9.295c5.407,2.66,8.654,6.581,12.563,3.338
			c3.921-3.227,8.985-6.165,5.6-0.337c-3.38,5.829-2.825-3.205-3.38,5.829C75.55,87.23,71.743,98.145,69.572,96.497z"/>
		<path fill="#B9212C" d="M96.32,17.578c0,0-7.348,2.323-4.525,5.514c2.824,3.207,7.88,0.268,2.824,3.207
			c-5.07,2.928-10.465,0.276-7.96,4.611c2.513,4.333,3.239,3.91,5.219,5.664c1.996,1.753,4.384,4.228,4.384,4.228
			c2.476-2.399,2.934,5.055,2.476-2.399c-0.466-7.47,1.283-9.454,1.283-9.454l2.895-1.672l5.172-1.071c0,0,1.036-1.557-3.959-3.496
			C99.145,20.777,96.32,17.578,96.32,17.578z"/>
		<path fill="#B9212C" d="M61.541,23.438c-3.312,0.957-5.176,1.078-9.632,1.713c-4.45,0.669-7.801-5.119-8.902,1.307
			c-1.103,6.438-9.475,10.328-2.013,9.86c7.463-0.462,9.628-1.716,13.252-3.813c3.607-2.098,4.453-0.645,6.084-4.498
			C61.962,24.159,61.541,23.438,61.541,23.438z"/>
		<path fill="#B9212C" d="M79.044,13.852c0,0,0.655,4.456-4.837,6.67c-5.472,2.209-6.084,4.487-8.477,2.026
			c-2.404-2.478-1.498-5.905-1.498-5.905s-6.238-4.106,0.912-3.429c7.156,0.681,3.131,2.056,7.156,0.681
			C76.337,12.521,79.044,13.852,79.044,13.852z"/>
		<path fill="#9E1E27" d="M98.763,68.94c0,0-4.759,1.792-6.702,6.781c-1.932,5.004-6.272,7.509-8.747,9.912
			c-2.466,2.388-11.607-0.028,0.343-12.755c3.834-4.085,7.788-13.219,7.788-13.219s4.758-1.787,7.835-6.478
			c3.081-4.687,4.527-5.523,3.997-8.112c-0.533-2.578,1.588-10.582,1.588-10.582s4.688,3.08,3.353,5.782
			c-1.326,2.714-2.243,6.125-3.146,9.559c-0.921,3.433,1.25,2.17,0.034,6.736c-1.212,4.561-2.673-0.503-1.212,4.561
			C105.806,67.766,98.763,68.94,98.763,68.94z"/>
		<path fill="#9E1E27" d="M97.688,50.784c-4.523,5.525-5.853,8.229-7.225,4.192c-1.374-4.021-5.219-5.66-2.026-8.471
			c3.201-2.829,4.755-1.811,6.74-0.05C97.159,48.196,97.688,50.784,97.688,50.784z"/>
		<path fill="#B9212C" d="M73.674,56.015c1.095,1.452,2.288-0.72,2.637-1.773c0.69-2.056,0.04-1.995-1.651-1.923
			c-2.381,0.089-1.672-0.217-3.18-1.842c-0.54-0.568-1.139-0.277-1.623-0.909c-0.719-0.962-0.184-1.113-0.342-1.983
			c-0.229-1.139-0.215-3.625-0.596-4.48c-0.594-1.293-2.766-1.609-3.236-2.69c-0.317-0.713,0.59-4.292,0.957-5.218
			c0.39-0.979,2.161-1.987,1.832-3.003c-2.15,0.467-2.898,1.941-3.543,3.757c-0.365,1.016-0.383,2.385-0.849,3.488
			c-0.562,1.329-1.33,1.477-2.267,2.428c-1.803,1.812-1.473,3.501,0.082,5.551c1.429,1.866,3.429,1.364,4.208,4.129
			c-1.278,0.712-1.754,2.457-1.768,3.82c-0.006,2.139,1.015,2.601,3.037,3.124c0.634,0.163,1.251,0.082,1.886,0.294
			c0.986,0.328,0.385,0.991,1.614,0.854c1.34-0.126,3.418-1.997,2.807-3.417c-0.249,0.086-0.491,0.141-0.73,0.222"/>
		<path fill="#B9212C" d="M59.948,16.986c1.24,1.202-0.074,5.383-1.042,6.432c-1.899,2.069-4.287,0.582-6.154-0.093
			c-0.904-0.329-1.995-0.324-2.861-0.731c-1.131-0.508-1.261-1.483-2.761-1.123c-1.449,0.334-1.946,1.667-2.737,2.384
			c-0.93,0.852-2.073,1.326-3.108,2.095c0.844-1.573,1.583-3.265,2.951-4.484c1.017-0.921,2.381-1.296,3.29-2.277
			c-0.819-1.182-0.022-2.562,1.486-2.463c0.833,0.072,1.876,1.883,2.416,2.295c1.571,1.199,2.088,0.795,3.756-0.247
			c1.092-0.687,2.582-1.886,3.008,0.189"/>
		<path fill="#9E1E27" d="M31.105,45.919c0.047-0.267,0.074-0.559,0.125-0.843c-0.899,0.332-2.258,0.354-3.216,0.47
			c-0.638-0.024-1.274,0.058-1.887,0.249c-0.876,0.848,0.108,0.924-0.029,1.864c-0.291,1.924-1.196,4.853-3.068,5.746
			c-1.167-1.236-1.37-1.878-1.053-3.18c0.415-0.237,0.635-0.584,0.685-1.042c0.213-0.758-0.263-1.166-0.208-1.895
			c0.175-1.965,1.217-3.837,2.279-5.265c1.429,0.548,4.07,1.003,4.677,2.601c-0.098-0.149-0.187-0.293-0.283-0.438"/>
		<path fill="#9E1E27" d="M54.18,55.738c-0.625-1.91-3.969-2.023-5.332-0.833c-1.485,1.247-0.236,5.096,0.8,6.364
			c1.07,1.323,0.656,1.344,2.035,0.55c0.457-0.271,1.543-2.024,1.895-2.578c0.023-0.026,1.24-2.365,1.245-2.135
			c-0.048-1.309-1.596-1.18-2.264-2.178c-0.226,0.066-0.44,0.126-0.667,0.192"/>
		<path fill="#9E1E27" d="M35.514,86.837c0.393-0.593,1.222-1.4,1.499-2.035c0.113-0.38,0.201-0.765,0.245-1.158
			c0.237-0.433,0.917-1.108,1.075-1.556c0.631-1.667-0.401-1.784-0.754-3.253c-0.222-0.897,0.216-2.05,0.536-2.92
			c0.354-0.966,1.23-1.866,1.13-2.752c-0.13-1.209-1.557-2.305-2.407-2.812c-1.066-0.629-2.168-0.316-2.245-2.105
			c-0.061-1.201,1.252-1.791-0.077-2.822c-0.58-0.444-2.032-0.5-2.369,0.293c0.115,0.597,0.306,1.17,0.589,1.707
			c0.298,1.195,0.103,1.786,0.142,2.853c0.05,1.084-0.233,1.925-0.221,2.946c0.215,0.627,0.448,1.25,0.673,1.858
			c0.022,0.669-0.4,1.854-0.556,2.504c-0.488,2.057-0.388,3.879-0.942,5.833c-0.75,2.686-0.107,5.136,2.169,7.152
			c0.812-0.709,0.877-2.092,0.064-2.873"/>
		<path fill="#9E1E27" d="M74.29,15.649c-1.236,1.811-2.698,2.469-4.645,3.644c-1.042,0.635-1.572,1.383-2.608,0.631
			c-0.418-0.314-2.104-3.212-2.158-3.716c-0.292-2.693,2.77-0.439,3.802-0.199c1.36,0.332,1.099,0.1,2.609-0.588
			c0.972-0.446,2.024-0.954,2.82,0.115c-0.187,0.174-0.361,0.356-0.546,0.525"/>
		<path fill="#B9212C" d="M90.013,17.56c-1.677,0.979-3.792,1.73-4.793,3.474c-0.456,0.804-0.647,1.543-0.503,2.424
			c0.136,0.859,0.916,3.449,1.404,4.158c0.442,0.672,1.883,1.117,2.091,1.626c0.381,0.942-0.966,2.031-1.868,2.106
			c-1.613,0.124-2.839-3.312-3.635-4.723c-1.844-3.274-6.376-3.11-9.081-0.586c-1.106,1.044-1.87,3.497-3.429,4.046
			c-1.601,0.559-3.461-1.357-4.275-2.397c-1.048-1.335-1.553-3.626-1.093-5.196c0.815-2.781,1.503,0.377,3.734-0.172
			c0.503-0.313,0.994-0.646,1.485-0.959c0.416-0.182,0.814-0.151,1.183,0.097c1.035-0.322,1.88-0.854,2.828-1.404
			c1.608-0.957,3.766-1.874,4.383-3.737c0.21-0.621-0.01-1.319,0.118-1.807c0.382-1.357,0.48-0.965,1.806-1.97
			c1.543-1.143,1.726-2.891,4.083-1.681c1.58,0.809,2.863,3.239,3.619,4.962c0.379,0.899,0.824,1.507,0.262,2.514
			c-0.509,0.92-1.646,1.509-2.351,0.59"/>
		<path fill="#9E1E27" d="M23.688,53.13c0.498,2.41,3.306,0.346,4.213-0.714c1.414-1.636,0.706-3.393,1.29-5.171
			c0.555-1.675,1.785-2.217,3.363-2.153c1.238,0.04,3.488,1.195,4.652,0.988c2.292-0.402,0.119-3.114-0.727-4.261
			c-1.39-1.851-2.47-1.067-4.5-1.474c-1.521-0.313-2.929-0.407-4.303,0.046c-0.896,0.311-2.144,0.735-2.874,1.411
			c-0.679,0.618-0.62,1.485-1.473,2.046c0.138,0.457,0.265,0.893,0.394,1.346c-0.626,0.429-0.783,0.949-1.118,1.524
			c-0.208,0.354-1.125,1.821-1.212,2.136c-0.065,0.253-0.015,2.086,0,2.435c0.058,1.174,0.169,1.55,0.852,2.676"/>
		<path fill="#9E1E27" d="M72.937,86.395c-0.867,1.307,1.915,4.03,1.063,5.169c-1.353,1.869-0.932,3.984-3.198,2.83
			c-1.304-0.663-6.696-1.418-8.296-0.976c-2.095,0.569-4.594-0.6-6.777-0.16c-0.101-0.333,0.746-2.087,1.067-2.591
			c0.79-1.272,1.729-1.289,2.833-2.298c1.899-1.733,2.36-4.328,1.045-6.446c-0.938-1.524-1.562-2.034,0.171-3.034
			c1.985-1.156,2.221,0.403,3.146,2.065c0.972,1.772,0.873,2.11,2.69,1.361c1.117-0.451,3.416-1.487,3.464-2.826
			c1.767-0.679,2.499,1.091,2.457,2.511c-0.053,1.736-2.481,4.02-1.116,5.231"/>
		<path fill="#9E1E27" d="M87.582,75.008c-2.031,1.788-0.982,6.512-2.781,8.44c-1.489,1.596-5.926,1.995-7.935,1.446
			c-3.042-0.835-2.591-5.58,0.074-6.638c1.352-0.524,2.486-0.15,3.786-0.454c1.502-0.366,2.917-1.475,4.261-2.266"/>
		<path fill="#9E1E27" d="M93.816,60.762c-0.219,0.08-0.436,0.146-0.656,0.226c-0.765-0.92-2.475-2.916-3.612-2.668
			c-1.765,0.375-2.143,3.365-1.423,4.617c-0.349,0.3-0.685,0.612-1.015,0.945c1.346,2.24-3.683,9.667,1.686,6.549
			c2.098-1.214,1.8-2.027,2.664-4.195c0.486-1.188,1.817-2.545,1.33-3.911"/>
		<path fill="#81151E" d="M105.985,51.768c-0.614,0.982-3.04,6.771-3.45,7.776c-0.62,1.522,1.069,4.007-0.239,5.013
			c-2.317,1.723-6.125-0.132-8.499,0.897c-0.303-0.372-0.617-0.71-0.961-1.038c-1.799,0.893-2.647-0.535-3.264,1.95
			c-0.41,1.715,0.466,3.316-1.272,4.538c0.114,0.455,0.261,0.912,0.417,1.343c-1.197,1.271-2.62,2.014-3.73,3.288
			c-0.826,0.96-1.682,5.336-1.808,6.863c1.076-0.708,3.93-2.298,5.05-2.939c1.624-0.922,1.458-1.047,2.474-2.401
			c0.434-0.573,2.825-4.602,3.23-5.254c0.188-0.281,0.537-1.043,0.672-1.354c0.478-1.089,1.234-1.199-1.479-2.599
			c-1.105-0.558,1.993-0.118,3.325-0.889c1.517-0.878-1.211-3.871,0.069-4.862c1.188-0.916,2.121,0.134,2.53-1.458
			c0.296-1.176,1.606-1.116,1.538-2.35"/>
		<path fill="#81151E" d="M76.013,81.713c-1.808,0.483-0.918,2.187-2,3.165c-1.094,1.001-2.497,0.261-3.705-0.097
			c-1.91-0.549-2.047-0.194-3.821,0.549c-2.547,1.06-1.938-1.082-3.641-2.667c-0.808,0.747-0.483,3.827-0.36,4.986
			c1.091,0.504,1.307-0.169,2.261-0.371c0.836-0.178,2.475-0.318,3.265-0.749c2.143,2.758,2.43,1.572,5.336,0.739
			c0.521,0.78,0.001,1.536,0.568,2.307c1.337-0.101,2.209-3.504,3.022-4.551c0.517-0.172,0.931-0.456,1.252-0.886
			c0.275-0.504,0.045-1.271,0.341-1.742c0.641-1.105,2.253-1.209,3.058-2.151c-1.204-1.597-2.99-0.089-4.48-0.346
			c-1.686-0.306-2.34-2.873-4.142-2.111c0.459,1.96,2.284,3.303-0.048,4.938c0.068,0.218,0.131,0.437,0.202,0.673"/>
		<path fill="#BF222D" d="M39.514,52.638c-0.787,1.148-1.599,1.674-3.135,1.033c-0.915-0.39-1.834-1.385-2.82-1.622
			c-1.918-0.482-1.505,1.207-1.607,2.255c-0.11,1.275-0.567,2.327-0.501,3.628c0.046,0.874,0.044,1.371,0.934,1.609
			c0.881,0.258,1.034-0.406,1.786-0.61c1.255-0.338,3.202,0.167,4.567,0.124c1.165-0.041,2.836,0.383,2.355-1.511
			c-0.155-0.631-0.763-1.232-0.971-1.886c0.162-0.252,0.192-0.505,0.061-0.796c-0.135-0.479-0.633-1.011-0.881-1.463"/>
		<path fill="#B9212C" d="M69.209,28.337c-1.77,1.022-3.529,2.063-5.295,3.071c-0.436,0.241-1.139,0.496-1.489,0.825
			c-0.376,0.368-0.224,0.714-0.605,1.059c-0.419,0.395-0.992,0.333-1.318,0.848c-0.231,0.347-0.495,1.327-0.755,1.799
			c-0.921,1.642-2.942,3.669-4.434,1.763c-0.348-0.435-0.513-0.885-0.889-1.304c-0.33-0.354-0.657-0.217-1.015-0.826
			c-0.573-0.97-0.096-1.54,0-2.562c0.043-0.525-0.145-1.005,0.064-1.538c0.206-0.523,0.551-0.579,0.827-1.055
			c0.351-0.611,0.473-1.258,0.866-1.865c0.283-0.411,0.888-0.785,1.091-1.227c0.908-1.852,1.375-3.453,3.836-3.364
			c0.844,0.04,1.606,0.071,2.54-0.03c0.988-0.112,1.693-0.616,2.544-0.361c1.27,0.4,3.244,4.174,1.546,4.922"/>
		<path fill="#9E1E27" d="M83.28,17.604c-0.174-0.173-0.367-0.372-0.55-0.553c-1.036,1.03-1.171,2.407-2.637,3.385
			c-1.734,1.149-2.621,0.707-4.467,0.649c-1.707-0.064-8.54,0.922-7.234,3.993c1.324-0.304,2.24-1.323,3.55-1.654
			c0.883-0.217,2.16,0.281,3.062-0.017c1.448-0.458,1.839-1.407,3.403-1.311c1.239,0.073,1.743,1.121,2.687,1.379
			c1.579,0.427,1.312,0.302,1.859-1.075c-0.138-0.435-0.26-0.871-0.356-1.304c0.042-0.217,0.924-1.339,1.076-1.555
			c0.303-0.442,2.01-2.129,2-2.549c-0.052-2.446-2.467-0.127-3.485,0.108c-0.16-0.17-0.317-0.362-0.472-0.536"/>
		<path fill="#9E1E27" d="M75.331,22.21c-0.694,0.403-5.042-1.24-5.574-0.659c-0.598,0.646-0.454,1.568-0.679,2.365
			c-0.165,0.584-0.238,0.914-0.313,1.457c-0.053,0.418,0.189,0.735-0.066,1.196c-0.495,0.895-1.734,0.606-2.531,0.946
			c-2.005,0.83-2.879,2.411-4.057,4.147c-0.581,0.872-1.136,1.464-2.055,1.989c-0.339,0.174-1.293,0.528-1.502,0.815
			c-0.465,0.635,0,0.521-0.041,1.207c-0.046,0.687,0.047,1.756-0.226,2.405c-0.27,0.647-1.476,1.779-2.317,1.678
			c-0.193-0.027-1.873-1.24-2.058-1.399c-0.706-0.677-0.857-2.151-1.916-2.02c-0.477,0.057-0.846,0.94-1.434,0.783
			c-0.411-0.107-0.68-1.02-0.855-1.333c-0.734-1.287-0.298-1.283-0.31-2.53c-0.009-0.881-0.871-1.913-1.766-1.93
			c-1.222-0.047-1.481,1.145-2.658,0.769c-0.466-0.149-1.699-0.944-1.49-1.626c0.303-0.94,2.545-1.28,3.223-2.091
			c0.844-1.034,0.629-1.541,1.908-2.265c0.718-0.417,2.101-1.642,2.895-1.732c0.862-0.101,1.224,1.244,0.853,2.003
			c-0.201,0.158-0.397,0.324-0.588,0.474c-0.441,0.169-0.59,0.478-0.452,0.889c-0.031,0.205-0.07,0.402-0.1,0.599
			c-0.267,0.326-0.586,0.537-0.992,0.654c-0.587,0.946,0.455,1.174,1.209,1.746c0.226,0.161,0.825,0.786,0.998,0.899
			c0.394,0.242,0.713,0.233,1.101,0.449c1.297,0.703,2.764,2.492,4.272,0.948c0.699-0.72,0.395-1.929,1.007-2.594
			c0.62-0.676,2.128-1.183,2.937-1.647c1.033-0.601,1.521-0.94,2.127-1.883c0.419-0.653,0.815-1.538,1.336-2.083
			c0.476-0.492,0.93-0.535,1.3-1.217c0.217-0.374,0.179-0.846,0.381-1.213c0.567-1.063,1.018-0.955,2.13-1.052"/>
	</g>
</g>
</svg>
